<svg width="32" height="32" viewBox="0 0 32 32" xmlns="http://www.w3.org/2000/svg">
  <!-- Background circle -->
  <circle cx="16" cy="16" r="16" fill="#2563eb"/>

  <!-- City buildings -->
  <rect x="6" y="20" width="3" height="8" fill="#ffffff" opacity="0.9"/>
  <rect x="10" y="18" width="3" height="10" fill="#ffffff" opacity="0.9"/>
  <rect x="14" y="16" width="3" height="12" fill="#ffffff" opacity="0.9"/>
  <rect x="18" y="19" width="3" height="9" fill="#ffffff" opacity="0.9"/>
  <rect x="22" y="17" width="3" height="11" fill="#ffffff" opacity="0.9"/>

  <!-- Building lights -->
  <rect x="7" y="22" width="1" height="1" fill="#ffd93d"/>
  <rect x="11" y="20" width="1" height="1" fill="#ffd93d"/>
  <rect x="15" y="18" width="1" height="1" fill="#ffd93d"/>
  <rect x="19" y="21" width="1" height="1" fill="#ffd93d"/>
  <rect x="23" y="19" width="1" height="1" fill="#ffd93d"/>

  <!-- Sensor network connections -->
  <g stroke="#4ecdc4" stroke-width="1" fill="none" opacity="0.7">
    <line x1="7.5" y1="16" x2="11.5" y2="14"/>
    <line x1="11.5" y1="14" x2="15.5" y2="12"/>
    <line x1="15.5" y1="12" x2="19.5" y2="14"/>
    <line x1="19.5" y1="14" x2="23.5" y2="13"/>
    <line x1="7.5" y1="16" x2="15.5" y2="12"/>
    <line x1="11.5" y1="14" x2="19.5" y2="14"/>
  </g>

  <!-- Sensor nodes -->
  <circle cx="7.5" cy="16" r="1.5" fill="#ff6b6b"/>
  <circle cx="11.5" cy="14" r="1.5" fill="#4ecdc4"/>
  <circle cx="15.5" cy="12" r="1.5" fill="#ffd93d"/>
  <circle cx="19.5" cy="14" r="1.5" fill="#96ceb4"/>
  <circle cx="23.5" cy="13" r="1.5" fill="#ff9ff3"/>

  <!-- Urban sensing waves -->
  <g stroke="#ffffff" stroke-width="0.5" fill="none" opacity="0.4">
    <circle cx="16" cy="8" r="3"/>
    <circle cx="16" cy="8" r="5"/>
    <circle cx="16" cy="8" r="7"/>
  </g>
</svg>